<?xml version="1.0" encoding="UTF-8"?>
<svg width="13px" height="13px" viewBox="0 0 13 13" version="1.1" xmlns="http://www.w3.org/2000/svg" xmlns:xlink="http://www.w3.org/1999/xlink">
    <title>02C0EA08-C219-4E68-A426-1AECE3D3B310@1x</title>
    <g id="Page-1" stroke="none" stroke-width="1" fill="none" fill-rule="evenodd" fill-opacity="0.85">
        <g id="Atmosphere-(Browser)-–-LIBRARY---hover" transform="translate(-34.000000, -84.000000)" fill="#F3A43C">
            <g id="Group" transform="translate(34.000000, 79.000000)">
                <path d="M5.34169396,5 C8.29183007,5 10.6833879,7.39160896 10.6833879,10.3418081 C10.6833879,11.6244026 10.2313687,12.80142 9.47794637,13.722241 L13,17.2445704 L12.2445704,18 L8.72205461,14.4781489 C7.80125328,15.2315873 6.62426099,15.6836162 5.34169396,15.6836162 C2.39155785,15.6836162 0,13.2920073 0,10.3418081 C0,7.39160896 2.39155785,5 5.34169396,5 Z M5.34169396,6.06836162 C2.98158507,6.06836162 1.06833879,7.98164879 1.06833879,10.3418081 C1.06833879,12.7019675 2.98158507,14.6152546 5.34169396,14.6152546 C7.70180285,14.6152546 9.61504912,12.7019675 9.61504912,10.3418081 C9.61504912,7.98164879 7.70180285,6.06836162 5.34169396,6.06836162 Z" id="ic_search"></path>
            </g>
        </g>
    </g>
</svg>