<?xml version="1.0" encoding="UTF-8"?>
<svg width="19px" height="18px" viewBox="0 0 19 18" version="1.1" xmlns="http://www.w3.org/2000/svg" xmlns:xlink="http://www.w3.org/1999/xlink">
    <!-- Generator: sketchtool 61.2 (101010) - https://sketch.com -->
    <title>E845EC55-7755-49FA-94D1-4A7B93045B05</title>
    <desc>Created with sketchtool.</desc>
    <defs>
        <path d="M14.1964397,9.08594476 C14.1964397,8.82031944 14.0714396,8.56250663 13.8660822,8.38281892 L8.04464666,3.29687535 C7.83928927,3.10937513 7.54464606,3 7.24107427,3 C6.93750248,3 6.64285927,3.10937513 6.43750188,3.29687535 L5.75892965,3.88281355 C5.55357226,4.06250127 5.42857211,4.32031407 5.42857211,4.58593939 C5.42857211,4.85156471 5.55357226,5.10937751 5.75892965,5.29687774 L10.0982205,9.08594476 L5.75892965,12.8828243 C5.55357226,13.062512 5.42857211,13.3203248 5.42857211,13.5859501 C5.42857211,13.8515754 5.55357226,14.1093882 5.75892965,14.2968885 L6.43750188,14.8828267 C6.64285927,15.0625144 6.93750248,15.1718895 7.24107427,15.1718895 C7.54464606,15.1718895 7.83928927,15.0625144 8.04464666,14.8828267 L13.8660822,9.7968831 C14.0714396,9.60938288 14.1964397,9.35157007 14.1964397,9.08594476 L14.1964397,9.08594476 Z" id="path-1"></path>
    </defs>
    <g id="Asset-Artboard-Page" stroke="none" stroke-width="1" fill="none" fill-rule="evenodd">
        <g id="icons/chevron_down" transform="translate(0.243243, 0.000000)">
            <mask id="mask-2" fill="white">
                <use xlink:href="#path-1"></use>
            </mask>
            <use id="Mask" fill="#021E5F" xlink:href="#path-1"></use>
            <g id="Color" mask="url(#mask-2)" fill="#FFFFFF">
                <rect id="color/main" x="0" y="0" width="18" height="18"></rect>
            </g>
        </g>
    </g>
</svg>